<svg width="29" height="30" viewBox="0 0 29 30" xmlns="http://www.w3.org/2000/svg">
<path fill-rule="evenodd" clip-rule="evenodd" d="M26.8708 0.70874L28.2846 26.1572C28.3717 27.7261 27.1705 29.0686 25.6016 29.1558C25.5829 29.1566 25.5685 29.1573 25.5566 29.1578C25.5434 29.1584 25.5331 29.1588 25.5228 29.1591C25.503 29.1596 25.4833 29.1598 25.4438 29.1601H2.84514C1.27381 29.1601 0 27.8863 0 26.315C0.000365181 26.2755 0.000547773 26.2558 0.00109533 26.2361C0.00164289 26.2163 0.00255543 26.1966 0.00438051 26.1572L1.41818 0.70874H26.8708ZM4.11216 3.55268L2.84766 26.3138H25.4463L24.1818 3.55268H4.11216ZM9.87878 6.40109H7.03364V9.95752C7.03364 13.3727 10.3386 16.3591 14.1465 16.3591C17.9544 16.3591 21.2593 13.3727 21.2593 9.95752V6.40109H18.4142V9.95752C18.4142 11.7334 16.4437 13.5139 14.1465 13.5139C11.8492 13.5139 9.87878 11.7334 9.87878 9.95752V6.40109Z" fill="currentColor"/>
</svg>
