<svg width="17" height="17" viewBox="0 0 17 17" xmlns="http://www.w3.org/2000/svg">
<path d="M8.02946 1.72711C4.34946 1.72711 1.36279 4.71378 1.36279 8.39378C1.36279 12.0738 4.34946 15.0604 8.02946 15.0604C11.7095 15.0604 14.6961 12.0738 14.6961 8.39378C14.6961 4.71378 11.7095 1.72711 8.02946 1.72711ZM8.02946 11.7271C7.66279 11.7271 7.36279 11.4271 7.36279 11.0604V8.39378C7.36279 8.02711 7.66279 7.72711 8.02946 7.72711C8.39613 7.72711 8.69613 8.02711 8.69613 8.39378V11.0604C8.69613 11.4271 8.39613 11.7271 8.02946 11.7271ZM8.69613 6.39378H7.36279V5.06044H8.69613V6.39378Z" fill="currentColor"/>
</svg>
