<svg width="186" height="35" viewBox="0 0 186 35" fill="none" xmlns="http://www.w3.org/2000/svg">
<g clip-path="url(#clip0_10_1426)">
<path d="M75.4069 8.53931L74.2236 6.38372L76.2513 4.2729H75.5605L73.9486 5.96795L73.0403 4.2729H72.4326L73.5456 6.31975L71.3964 8.53931H72.0808L73.8206 6.73552L74.8057 8.53931H75.4069Z" fill="#F1EBD8"/>
<path d="M80.1947 8.61606C81.5252 8.61606 82.5933 7.49669 82.5933 6.0639C82.5933 4.88696 81.717 4.20254 80.6233 4.20254C79.2928 4.20254 78.2246 5.32191 78.2246 6.74831C78.2246 7.93165 79.1009 8.61606 80.1947 8.61606ZM80.2267 8.14273C79.4271 8.14273 78.7875 7.63741 78.7875 6.72273C78.7875 5.53939 79.6126 4.67588 80.5913 4.67588C81.3844 4.67588 82.0305 5.18759 82.0305 6.09588C82.0305 7.27921 81.1925 8.14273 80.2267 8.14273ZM86.1219 8.53931L84.6827 6.30056L86.9087 4.2729H86.2115L83.8768 6.42849L84.3565 4.2729H83.8256L82.8853 8.53931H83.4162L83.7297 7.10651L84.2861 6.5948L85.5015 8.53931H86.1219ZM89.9635 8.53931L88.5243 6.30056L90.7503 4.2729H90.0531L87.7184 6.42849L88.1981 4.2729H87.6672L86.7269 8.53931H87.2578L87.5713 7.10651L88.1277 6.5948L89.3431 8.53931H89.9635ZM93.3637 8.53931L93.4661 8.06597H91.1954L91.5216 6.5948H93.7475L93.8499 6.12147H91.6303L91.9373 4.74624H94.2017L94.304 4.2729H91.5088L90.5685 8.53931H93.3637ZM94.7219 8.53931L97.9777 5.05966L97.2037 8.53931H97.741L98.6813 4.2729H98.1376L94.9266 7.68858L95.6814 4.2729H95.1505L94.2102 8.53931H94.7219ZM98.176 3.46696L97.9713 3.26227C97.7091 3.55011 97.3573 3.72281 96.9863 3.72281C96.6089 3.72281 96.3402 3.54371 96.1995 3.26227L95.9309 3.46696C96.1164 3.81236 96.4809 4.02984 96.9351 4.02984C97.3956 4.02984 97.8434 3.81236 98.176 3.46696ZM102.295 8.53931L103.236 4.2729H102.705L102.302 6.10867H99.8071L100.21 4.2729H99.6792L98.7389 8.53931H99.2698L99.6984 6.58201H102.193L101.764 8.53931H102.295ZM107.335 8.53931L108.269 4.2729H107.738L106.804 8.53931H107.335ZM104.226 4.2729L103.293 8.53931H105C106.19 8.53931 106.632 7.72057 106.632 7.07453C106.632 6.47966 106.184 5.96795 105.448 5.96795H104.386L104.757 4.2729H104.226ZM105.359 6.44129C105.774 6.44129 106.075 6.74831 106.075 7.11291C106.075 7.62462 105.71 8.06597 105.032 8.06597H103.919L104.284 6.44129H105.359ZM108.845 8.53931L112.101 5.05966L111.327 8.53931H111.864L112.805 4.2729H112.261L109.05 7.68858L109.805 4.2729H109.274L108.334 8.53931H108.845ZM112.299 3.46696L112.095 3.26227C111.832 3.55011 111.481 3.72281 111.11 3.72281C110.732 3.72281 110.464 3.54371 110.323 3.26227L110.054 3.46696C110.24 3.81236 110.604 4.02984 111.058 4.02984C111.519 4.02984 111.967 3.81236 112.299 3.46696ZM117.748 8.53931L116.309 6.30056L118.535 4.2729H117.837L115.503 6.42849L115.982 4.2729H115.452L114.511 8.53931H115.042L115.356 7.10651L115.912 6.5948L117.127 8.53931H117.748ZM118.039 8.61606C118.801 8.61606 119.376 8.32823 120.016 6.45408L120.604 4.74624H122.21L121.378 8.53931H121.909L122.843 4.2729H120.233L119.498 6.4157C118.999 7.86129 118.654 8.14273 118.142 8.14273L118.039 8.61606ZM123.316 8.61606C123.924 8.61606 124.275 8.28985 124.659 7.78453L127.288 4.2729H126.648L124.73 6.92102L123.968 4.2729H123.399L124.346 7.35597L124.199 7.54786C123.872 7.97642 123.706 8.14273 123.393 8.14273C123.156 8.14273 122.99 8.0148 122.881 7.85489L122.561 8.27705C122.676 8.46895 122.958 8.61606 123.316 8.61606ZM127.844 4.2729L126.911 8.53931H128.625C129.808 8.53931 130.25 7.72057 130.25 7.07453C130.25 6.47966 129.795 5.96795 129.066 5.96795H128.004L128.273 4.74624H130.518L130.614 4.2729H127.844ZM128.983 6.44129C129.392 6.44129 129.693 6.74831 129.693 7.11291C129.693 7.62462 129.328 8.06597 128.663 8.06597H127.537L127.902 6.44129H128.983Z" fill="#F1EBD8"/>
<path d="M65.7799 16.7332C65.5992 14.2526 63.7921 11.7719 59.9067 8.7049C60.0874 8.29897 60.1778 6.63016 58.2351 5.59278C53.401 3.06701 43.01 0.405928 35.1941 0C35.2844 0.225515 35.4651 0.766753 35.6007 1.21778C26.9264 0.856959 18.2973 1.12758 9.6682 1.93943C7.31892 2.16495 0 3.15722 0 3.15722L16.5353 10.1482C14.8186 10.5541 13.0114 10.9601 11.2043 11.4111C9.39713 11.8621 3.93053 13.7564 3.93053 13.7564L10.5266 15.1997C13.8246 15.9214 23.1314 17.8608 27.0619 18.7629C26.5198 20.3415 23.1314 31.482 23.1314 31.482C23.1314 31.482 27.5589 26.8363 28.9594 25.5284C30.7214 23.9046 31.2635 23.3183 31.8057 22.9124C31.5798 25.2577 31.1732 30.3544 31.0376 31.5722C30.9473 32.5644 31.128 33.6018 31.7153 34.2332C32.3478 34.8196 33.2514 35.0902 34.1098 35C34.923 34.8196 35.691 34.4588 36.3235 33.9175C38.9891 31.7526 45.6755 25.8441 51.3228 20.4317C51.639 20.3866 51.9553 20.3415 52.2715 20.2964C56.1569 19.8905 59.9067 20.4768 60.5392 22.4162C60.9458 23.6791 60.5392 24.4459 60.1326 25.6637C61.2169 24.7165 62.2108 23.6791 63.2047 22.6418C64.289 21.2887 65.9606 19.1688 65.7799 16.7332Z" fill="#282828"/>
<path d="M35.5072 6.99098H35.5976C35.3717 6.53995 35.1909 6.08892 35.0102 5.77319C38.1727 5.41237 45.5368 5.77319 48.4734 7.62242C51.41 9.47165 54.0756 10.1031 56.1086 9.65206C55.8827 10.1031 55.5665 10.4639 55.205 10.7796C54.437 10.96 53.669 10.96 52.9461 10.8698C52.1329 12.2229 50.0547 12.0425 46.847 13.6662C42.3292 15.9214 37.992 18.4923 33.8356 21.3789C33.7001 22.9575 33.429 26.0245 33.3838 26.5206L39.754 24.1753L38.4438 23.0928L43.9104 21.8299C44.814 20.4317 51.5456 13.9369 52.6299 13.1701C52.9913 13.0799 53.3527 13.0348 53.7141 12.9897C55.1147 11.7268 56.6959 10.5992 58.3675 9.74227C58.4127 9.65206 58.4127 9.56185 58.4127 9.47165C58.5031 8.88531 58.4579 8.07345 57.6899 7.66752C44.7236 0.947163 20.6886 3.11211 7.76758 4.14948L19.9658 9.47165C25.7938 8.25386 31.1701 7.48711 35.5072 6.99098Z" fill="#F1EBD8"/>
<path d="M38.4496 23.0928L39.7598 24.1753L33.3896 26.4755C33.3896 26.4755 33.0282 30.5799 32.9379 31.5271C32.8023 32.8351 33.9318 33.241 35.0161 32.384C37.3654 30.4446 42.9223 25.7088 48.0727 20.9279L38.4496 23.0928Z" fill="#F1EBD8"/>
<path d="M49.8318 11.5915C47.3922 11.9974 46.2175 10.2835 46.0368 8.47936C45.1784 8.34405 44.2749 8.25384 43.5068 8.20874C43.4616 10.4639 44.9977 12.8995 48.6572 12.3131C50.0125 12.0876 50.6902 11.6366 50.9613 11.1855C50.645 11.4111 50.2836 11.5464 49.8318 11.5915Z" fill="white"/>
<path d="M58.3696 9.74231C53.3096 12.3132 49.2436 17.5902 47.7979 19.5297C51.9543 18.1766 60.6286 17.4549 62.0291 21.6495C64.3332 18.6727 66.6373 16.1018 58.3696 9.74231ZM55.8848 13.1701C56.1559 12.674 56.5625 12.2681 57.1046 12.0426C57.9178 12.3583 58.6859 12.8995 59.2732 13.5761L55.8848 13.1701Z" fill="#EEE9D7"/>
<path d="M44.2768 12.9445C42.56 11.9973 41.9727 10.103 42.1986 8.34399C39.4427 8.56951 24.5338 9.69709 11.0254 13.2602C15.3625 14.027 29.5034 17.2744 29.5034 17.2744C29.5034 17.2744 27.9673 21.8298 27.1541 24.7164C32.3497 20.2061 35.738 17.545 44.2768 12.9445ZM28.2384 13.0347L38.8554 11.862L33.1629 16.0115L33.2984 14.2976L28.2384 13.0347Z" fill="#F1EBD8"/>
<path d="M129.08 28.3699L131.294 16.8687H142.091L140.375 19.4395H134.185L132.83 26.4756C132.604 27.5581 131.655 28.3248 130.571 28.3248L129.08 28.3699Z" fill="#F1EBD8"/>
<path d="M77.8894 16.8235H70.6157L70.5705 17.0039C71.2933 17.2745 72.3776 17.8609 71.7903 18.7629L65.5557 28.3248H68.1308C68.9441 28.3248 69.6669 27.9188 70.1187 27.2423L70.6157 26.4755H76.9858L77.4376 28.3248H81.0519L77.8894 16.8235ZM72.0162 24.1302L74.8173 19.6199H75.2239L76.3533 24.1302H72.0162Z" fill="#F1EBD8"/>
<path d="M108.789 16.8235H101.56L101.515 17.0039C102.192 17.2745 103.141 17.7707 102.87 18.5825L96.5 28.3248H99.0752C99.8884 28.3248 100.611 27.9189 101.063 27.2423L101.56 26.4756H107.93L108.382 28.3248H111.996L108.789 16.8235ZM102.915 24.1302L105.716 19.6199H106.123L107.252 24.1302H102.915Z" fill="#F1EBD8"/>
<path d="M150.854 16.8235H143.626L143.535 17.0039C144.258 17.2745 145.297 17.8158 144.8 18.7178L138.521 28.3248H141.096C141.909 28.3248 142.632 27.9188 143.038 27.2423L143.535 26.4755H149.905L150.357 28.3248H153.972L150.854 16.8235ZM144.981 24.1302L147.782 19.6199H148.189L149.318 24.1302H144.981Z" fill="#F1EBD8"/>
<path d="M183.695 26.0245L185.457 16.8685H172.265L172.175 17.0489C172.897 17.3196 173.756 17.8157 173.44 18.7178L170.503 25.9794H168.38L167.566 30.1739H169.057C170.142 30.1739 171.09 29.4072 171.316 28.3247H182.114L181.752 30.1739H185.186L185.999 25.9794H183.695V26.0245ZM180.262 26.0245H174.208L176.964 19.2139H181.572L180.262 26.0245Z" fill="#F1EBD8"/>
<path d="M95.0079 22.2358L94.782 22.1907L94.8272 22.0103L95.0531 21.9652C95.5049 21.8299 95.9567 21.6044 96.2729 21.2435C96.8151 20.7023 97.0861 19.9806 97.0409 19.2139C97.0409 17.2745 95.1886 16.8685 93.6074 16.8685H82.9453L82.8549 17.0489C83.5777 17.3196 84.3006 17.7706 84.1199 18.808L82.2676 28.3698H91.8454C93.5622 28.3698 94.782 27.9188 95.5501 27.0618C96.1825 26.3402 96.4988 25.393 96.4536 24.4458C96.4536 23.3634 96.0018 22.5515 95.0079 22.2358ZM92.3876 25.4832C92.0261 25.8891 91.5292 26.1147 90.987 26.0696H86.1529L86.6499 23.4536H91.3936C91.7099 23.4536 92.7038 23.4536 92.7038 24.4458C92.749 24.8067 92.6134 25.2126 92.3876 25.4832ZM92.8393 20.9729C92.5231 21.3337 92.0713 21.5141 91.6195 21.469H87.0565L87.5083 19.1237H92.0261C92.8393 19.1237 93.2008 19.4394 93.2008 20.0708C93.2008 20.3866 93.0652 20.7474 92.8393 20.9729Z" fill="#F1EBD8"/>
<path d="M125.421 16.8235L124.562 21.1534H118.012L118.87 16.8235H113.9C113.855 16.8686 113.855 16.9588 113.81 17.0039C114.533 17.2745 115.256 17.7255 115.075 18.7629L113.223 28.3248H114.759C115.843 28.3248 116.792 27.558 117.018 26.4756L117.56 23.7694H124.111L123.207 28.3699H126.641L128.9 16.8686L125.421 16.8235Z" fill="#F1EBD8"/>
<path d="M166.074 16.8235H155.954L155.864 17.0039C156.587 17.2745 157.31 17.7255 157.084 18.7629L155.231 28.3248H156.722C157.807 28.3248 158.755 27.558 158.981 26.4756L159.343 24.491H164.629C166.571 24.491 167.927 23.9949 168.83 22.9575C169.553 22.0554 169.914 20.8828 169.869 19.7101C169.96 17.7255 168.74 16.8235 166.074 16.8235ZM165.758 21.5142C165.397 22.0103 164.809 22.2359 164.222 22.1908H159.885L160.427 19.3042H164.674C165.623 19.3042 166.119 19.665 166.119 20.3866C166.119 20.8377 165.984 21.1985 165.758 21.5142Z" fill="#F1EBD8"/>
</g>
<defs>
<clipPath id="clip0_10_1426">
<rect width="186" height="35" fill="white"/>
</clipPath>
</defs>
</svg>
