<svg width="0" height="0" class="hidden">
  <symbol xmlns="http://www.w3.org/2000/svg" viewBox="0 0 29 30" id="ic_cart">
    <path fill-rule="evenodd" clip-rule="evenodd" d="M26.8708 0.70874L28.2846 26.1572C28.3717 27.7261 27.1705 29.0686 25.6016 29.1558C25.5829 29.1566 25.5685 29.1573 25.5566 29.1578C25.5434 29.1584 25.5331 29.1588 25.5228 29.1591C25.503 29.1596 25.4833 29.1598 25.4438 29.1601H2.84514C1.27381 29.1601 0 27.8863 0 26.315C0.000365181 26.2755 0.000547773 26.2558 0.00109533 26.2361C0.00164289 26.2163 0.00255543 26.1966 0.00438051 26.1572L1.41818 0.70874H26.8708ZM4.11216 3.55268L2.84766 26.3138H25.4463L24.1818 3.55268H4.11216ZM9.87878 6.40109H7.03364V9.95752C7.03364 13.3727 10.3386 16.3591 14.1465 16.3591C17.9544 16.3591 21.2593 13.3727 21.2593 9.95752V6.40109H18.4142V9.95752C18.4142 11.7334 16.4437 13.5139 14.1465 13.5139C11.8492 13.5139 9.87878 11.7334 9.87878 9.95752V6.40109Z" fill="currentColor"></path>
  </symbol>
  <symbol xmlns="http://www.w3.org/2000/svg" viewBox="0 0 29 29" id="ic_close">
    <path fill-rule="evenodd" clip-rule="evenodd" d="M14.5 18.0931L3.59308 29L0 25.4069L10.9069 14.5L0 3.59308L3.59308 0L14.5 10.9069L25.4069 0L29 3.59308L18.0931 14.5L29 25.4069L25.4069 29L14.5 18.0931Z" fill="currentColor"></path>
  </symbol>
  <symbol xmlns="http://www.w3.org/2000/svg" viewBox="0 0 33 22" id="ic_menu">
    <path fill-rule="evenodd" clip-rule="evenodd" d="M33 3.14286V0H0V3.14286H33ZM33 9.42949V12.5723H0V9.42949H33ZM33 18.8558V21.9986H0V18.8558H33Z" fill="currentColor"></path>
  </symbol>
  <symbol xmlns="http://www.w3.org/2000/svg" viewBox="0 0 17 17" id="ic_notice">
    <path d="M8.02946 1.72711C4.34946 1.72711 1.36279 4.71378 1.36279 8.39378C1.36279 12.0738 4.34946 15.0604 8.02946 15.0604C11.7095 15.0604 14.6961 12.0738 14.6961 8.39378C14.6961 4.71378 11.7095 1.72711 8.02946 1.72711ZM8.02946 11.7271C7.66279 11.7271 7.36279 11.4271 7.36279 11.0604V8.39378C7.36279 8.02711 7.66279 7.72711 8.02946 7.72711C8.39613 7.72711 8.69613 8.02711 8.69613 8.39378V11.0604C8.69613 11.4271 8.39613 11.7271 8.02946 11.7271ZM8.69613 6.39378H7.36279V5.06044H8.69613V6.39378Z" fill="currentColor"></path>
  </symbol>
</svg>